<svg aria-hidden="true" style="position: absolute; width: 0; height: 0; overflow: hidden;" version="1.1" xmlns="http://www.w3.org/2000/svg" xmlns:xlink="http://www.w3.org/1999/xlink">
<defs>
<symbol id="icon-arrow-right" viewBox="0 0 32 32">
<path fill="none" stroke="#475f45" style="stroke: var(--color1, #475f45)" stroke-linejoin="round" stroke-linecap="round" stroke-miterlimit="4" stroke-width="2.6667" d="M6.667 16h18.667"></path>
<path fill="none" stroke="#475f45" style="stroke: var(--color1, #475f45)" stroke-linejoin="round" stroke-linecap="round" stroke-miterlimit="4" stroke-width="2.6667" d="M16 6.667l9.333 9.333-9.333 9.333"></path>
</symbol>
<symbol id="icon-facebook" viewBox="0 0 32 32">
<path fill="none" stroke="#fff" style="stroke: var(--color2, #fff)" stroke-linejoin="round" stroke-linecap="round" stroke-miterlimit="4" stroke-width="2.6667" d="M24 2.667h-4c-1.768 0-3.464 0.702-4.714 1.953s-1.953 2.946-1.953 4.714v4h-4v5.333h4v10.667h5.333v-10.667h4l1.333-5.333h-5.333v-4c0-0.354 0.141-0.693 0.391-0.943s0.589-0.391 0.943-0.391h4v-5.333z"></path>
</symbol>
<symbol id="icon-Group" viewBox="0 0 33 32">
<path fill="#fff" style="fill: var(--color2, #fff)" d="M52.66 39.339c0 0-0.722-1.695-2.703-3.899-0.9-1.002-2.060-2.104-3.535-3.21-0.938-0.703-2.001-1.408-3.205-2.089-1.512-0.855-3.243-1.682-5.241-2.392-6.58-2.372-14.364-5.673-21.116-10.042-4.573-2.959-8.67-6.408-11.609-10.373-0.383-0.517-0.663-0.983-0.912-1.504-0.224-0.467-0.423-0.978-0.652-1.613-0.034-0.089 0.011-0.188 0.1-0.222s0.188 0.012 0.221 0.101c0.241 0.615 0.448 1.111 0.678 1.562 0.251 0.491 0.529 0.929 0.909 1.414 2.995 3.838 7.124 7.13 11.7 9.945 6.782 4.171 14.55 7.285 21.112 9.495 2.090 0.715 3.915 1.535 5.488 2.43 1.264 0.719 2.37 1.48 3.332 2.249 1.514 1.213 2.678 2.437 3.559 3.549 1.956 2.468 2.534 4.359 2.534 4.359 0.066 0.182-0.028 0.383-0.211 0.45-0.182 0.066-0.384-0.029-0.45-0.211z"></path>
<path fill="#fff" style="fill: var(--color2, #fff)" d="M6.927 9.389c0 0-0.159-0.077-0.417-0.223-0.118-0.067-0.256-0.146-0.405-0.242-0.339-0.219-0.737-0.509-1.199-0.743-0.459-0.232-0.959-0.434-1.478-0.516-0.060-0.005-0.103-0.057-0.099-0.117s0.057-0.103 0.117-0.099c0.705 0.008 1.412 0.209 2.029 0.462 0.245 0.101 0.475 0.209 0.681 0.321 0.158 0.086 0.305 0.17 0.429 0.259 0.129 0.093 0.233 0.187 0.319 0.271 0.195 0.187 0.291 0.312 0.291 0.312 0.087 0.074 0.097 0.204 0.024 0.291s-0.204 0.097-0.291 0.024z"></path>
<path fill="#fff" style="fill: var(--color2, #fff)" d="M12.023 14.159c0 0-0.147 0.038-0.407 0.061-0.115 0.010-0.251 0.018-0.404 0.010-0.147-0.009-0.308-0.036-0.478-0.069-0.223-0.042-0.459-0.104-0.702-0.182-0.61-0.194-1.251-0.488-1.77-0.938-0.048-0.036-0.058-0.103-0.022-0.151s0.103-0.058 0.151-0.023c0.429 0.271 0.916 0.434 1.393 0.545 0.483 0.112 0.953 0.138 1.337 0.18 0.169 0.019 0.317 0.045 0.445 0.067 0.28 0.048 0.444 0.088 0.444 0.088 0.114-0.004 0.209 0.085 0.212 0.199s-0.086 0.209-0.2 0.213z"></path>
<path fill="#fff" style="fill: var(--color2, #fff)" d="M8.96 11.256c0 0-0.056-0.119-0.12-0.335-0.029-0.096-0.060-0.209-0.080-0.34-0.019-0.126-0.024-0.267-0.027-0.416-0.005-0.198 0.002-0.409 0.017-0.627 0.039-0.601 0.143-1.233 0.37-1.712 0.021-0.056 0.083-0.084 0.14-0.064s0.084 0.084 0.063 0.14c-0.080 0.29-0.102 0.625-0.1 0.971 0.002 0.385 0.048 0.775 0.092 1.127 0.021 0.173 0.049 0.335 0.062 0.481 0.008 0.102 0.008 0.194 0.007 0.278-0.002 0.264-0.018 0.422-0.018 0.422 0.020 0.112-0.053 0.219-0.165 0.241s-0.22-0.054-0.241-0.165z"></path>
<path fill="#fff" style="fill: var(--color2, #fff)" d="M21.1 20.186c0 0-0.441 0.041-1.154 0.103-0.332 0.029-0.722 0.064-1.155 0.096-1 0.075-2.223 0.157-3.453 0.363-1.306 0.22-2.621 0.548-3.686 1.067-0.053 0.027-0.118 0.007-0.146-0.045s-0.007-0.118 0.046-0.146c1.313-0.742 3.038-1.219 4.662-1.519 0.606-0.111 1.197-0.201 1.748-0.264 0.419-0.048 0.814-0.088 1.173-0.105 0.37-0.018 0.702-0.017 0.982-0.012 0.616 0.011 0.985 0.049 0.985 0.049 0.115 0.001 0.206 0.094 0.205 0.208s-0.094 0.205-0.208 0.205z"></path>
<path fill="#fff" style="fill: var(--color2, #fff)" d="M15.158 23.129c-0.117-0.503 0.011-1.096 0.211-1.633 0.085-0.227 0.182-0.439 0.283-0.629 0.049-0.091 0.095-0.178 0.148-0.253 0.056-0.078 0.114-0.143 0.169-0.2 0.176-0.18 0.299-0.266 0.299-0.266 0.071-0.088 0.2-0.101 0.288-0.030s0.101 0.2 0.030 0.288c0 0-0.041 0.112-0.13 0.296-0.041 0.082-0.085 0.18-0.148 0.282-0.093 0.151-0.218 0.309-0.332 0.488-0.153 0.241-0.307 0.5-0.419 0.773-0.118 0.288-0.201 0.577-0.191 0.857 0.007 0.057-0.033 0.11-0.090 0.118s-0.11-0.033-0.118-0.090z"></path>
<path fill="#fff" style="fill: var(--color2, #fff)" d="M20.52 27.492c1.218-1.158 2.974-1.957 4.675-2.495 0.75-0.237 1.488-0.424 2.164-0.565 0.331-0.069 0.647-0.13 0.942-0.173 0.307-0.045 0.593-0.073 0.847-0.092 0.789-0.061 1.281-0.046 1.281-0.046 0.113-0.006 0.209 0.080 0.215 0.192s-0.079 0.209-0.192 0.216c0 0-0.579 0.084-1.479 0.248-0.155 0.028-0.32 0.057-0.493 0.087-0.158 0.026-0.322 0.052-0.493 0.079-1.073 0.171-2.373 0.42-3.651 0.829-1.351 0.433-2.676 1.028-3.675 1.874-0.043 0.039-0.109 0.035-0.148-0.008-0.038-0.043-0.034-0.109 0.008-0.147z"></path>
<path fill="#fff" style="fill: var(--color2, #fff)" d="M25.687 28.158c-0.113-0.53 0.127-1.29 0.453-1.993 0.123-0.267 0.258-0.524 0.394-0.753 0.064-0.11 0.126-0.215 0.194-0.307 0.070-0.095 0.141-0.177 0.207-0.248 0.209-0.223 0.355-0.339 0.355-0.339 0.070-0.089 0.199-0.104 0.288-0.034s0.103 0.199 0.033 0.288c0 0-0.062 0.141-0.184 0.367-0.056 0.104-0.12 0.224-0.204 0.352-0.124 0.19-0.285 0.393-0.437 0.617-0.209 0.307-0.421 0.635-0.584 0.963-0.19 0.382-0.324 0.749-0.307 1.060 0.008 0.057-0.032 0.11-0.089 0.118s-0.11-0.033-0.118-0.090z"></path>
<path fill="#fff" style="fill: var(--color2, #fff)" d="M15.53 8.827c-0.374 0.857-0.422 1.984-0.335 3.116 0.076 1.005 0.272 2.009 0.452 2.833 0.028 0.13 0.056 0.255 0.079 0.375 0.027 0.132 0.049 0.258 0.071 0.377 0.12 0.691 0.202 1.135 0.202 1.135 0.033 0.107-0.027 0.222-0.136 0.255s-0.222-0.027-0.255-0.136c0 0-0.183-0.428-0.39-1.118-0.035-0.119-0.070-0.246-0.102-0.38-0.029-0.123-0.056-0.252-0.080-0.385-0.159-0.854-0.286-1.9-0.296-2.937-0.010-1.188 0.143-2.362 0.6-3.227 0.025-0.052 0.088-0.074 0.14-0.049s0.074 0.088 0.049 0.14z"></path>
<path fill="#fff" style="fill: var(--color2, #fff)" d="M24.965 14.677c-0.264 1.099-0.071 2.305 0.299 3.446 0.347 1.067 0.861 2.070 1.319 2.878 0.072 0.128 0.142 0.25 0.208 0.369 0.072 0.129 0.139 0.254 0.203 0.372 0.365 0.68 0.62 1.111 0.62 1.111 0.067 0.090 0.048 0.219-0.042 0.285s-0.219 0.049-0.286-0.042c0 0-0.348-0.386-0.799-1.046-0.078-0.114-0.157-0.237-0.236-0.369-0.072-0.12-0.143-0.248-0.213-0.381-0.452-0.851-0.916-1.925-1.208-3.050-0.316-1.219-0.42-2.497-0.067-3.629 0.016-0.056 0.073-0.089 0.128-0.073s0.088 0.073 0.074 0.129z"></path>
<path fill="#fff" style="fill: var(--color2, #fff)" d="M3.328 0.006c-0.446-0.009-0.754 0.255-0.933 0.689-0.253 0.615-0.228 1.599 0.039 2.563 0.363 1.306 1.183 2.549 2.282 2.85l0.21 0.053 0.1-0.191c0.448-0.83 0.716-1.915 0.702-2.934-0.006-0.459-0.069-0.904-0.193-1.304-0.128-0.412-0.314-0.778-0.568-1.063-0.397-0.447-0.939-0.711-1.64-0.663zM4.639 5.51c-0.851-0.326-1.472-1.338-1.803-2.373-0.277-0.867-0.352-1.76-0.146-2.328 0.115-0.316 0.318-0.526 0.638-0.533 0.472 0.034 0.826 0.228 1.098 0.515 0.267 0.282 0.438 0.665 0.548 1.099 0.090 0.357 0.133 0.749 0.139 1.153 0.009 0.843-0.151 1.739-0.474 2.467z"></path>
<path fill="#fff" style="fill: var(--color2, #fff)" d="M0.122 6.432c-0.154 0.4-0.152 0.731-0.049 1.003 0.165 0.437 0.611 0.725 1.188 0.886 1.119 0.312 2.74 0.136 3.542-0.191l0.267-0.116-0.133-0.26c-0.354-0.72-0.999-1.36-1.718-1.773-0.324-0.186-0.662-0.325-0.991-0.408-0.347-0.087-0.682-0.117-0.979-0.073-0.552 0.082-0.981 0.372-1.128 0.932zM4.292 7.742c-0.777 0.263-2.025 0.407-2.934 0.201-0.745-0.169-1.254-0.584-0.981-1.421 0.146-0.317 0.409-0.466 0.725-0.513 0.288-0.044 0.619 0.012 0.967 0.125 0.278 0.089 0.564 0.219 0.844 0.381 0.532 0.307 1.040 0.728 1.379 1.227z"></path>
<path fill="#fff" style="fill: var(--color2, #fff)" d="M3.628 11.252l0.070 0.19c0.474 1.367 1.337 2.051 2.269 2.346 1.195 0.378 2.515 0.102 3.317-0.231l0.228-0.099-0.104-0.226c-0.51-1.149-1.419-1.795-2.443-2.088-0.417-0.118-0.853-0.179-1.286-0.186-0.67-0.010-1.326 0.102-1.896 0.258l-0.156 0.036zM4.033 11.546c0.607-0.094 1.296-0.106 1.976-0.018 0.462 0.060 0.921 0.163 1.346 0.352 0.596 0.265 1.126 0.684 1.493 1.33-0.727 0.281-1.787 0.485-2.773 0.21-0.808-0.227-1.562-0.779-2.042-1.874z"></path>
<path fill="#fff" style="fill: var(--color2, #fff)" d="M7.258 21.836l0.122 0.139c1.032 1.212 2.155 1.431 3.156 1.221 1.343-0.282 2.47-1.369 2.89-1.945l0.157-0.223-0.238-0.133c-0.938-0.54-2.059-0.704-3.141-0.535-0.424 0.066-0.843 0.183-1.237 0.348-0.603 0.252-1.149 0.611-1.605 1.039l-0.104 0.090zM7.716 21.937c0.426-0.312 0.92-0.554 1.44-0.735 0.367-0.128 0.747-0.224 1.133-0.283 0.872-0.132 1.771-0.071 2.561 0.281-0.454 0.557-1.344 1.362-2.4 1.62-0.853 0.209-1.81 0.051-2.734-0.883z"></path>
<path fill="#fff" style="fill: var(--color2, #fff)" d="M12.878 26.060l0.191-0.010c1.279-0.044 2.111-0.625 2.57-1.37 0.579-0.941 0.551-2.155 0.062-2.971l-0.089-0.143-0.165 0.030c-0.777 0.13-1.355 0.638-1.761 1.283-0.229 0.363-0.408 0.767-0.529 1.163-0.262 0.856-0.289 1.659-0.278 1.872v0.145zM15.371 22.125c0.353 0.669 0.359 1.605-0.067 2.359-0.358 0.637-1.022 1.144-2.041 1.275 0.047-0.305 0.183-0.904 0.415-1.541 0.128-0.35 0.279-0.716 0.481-1.044 0.292-0.477 0.677-0.886 1.213-1.049z"></path>
<path fill="#fff" style="fill: var(--color2, #fff)" d="M16.628 29.686l0.193 0.1c1.080 0.582 1.994 0.508 2.75 0.128 1.396-0.701 2.249-2.494 2.607-3.21l0.117-0.245-0.256-0.091c-0.893-0.332-1.788-0.101-2.621 0.424-0.424 0.267-0.837 0.607-1.214 0.989-0.558 0.566-1.040 1.217-1.461 1.768l-0.114 0.137zM17.153 29.642c0.426-0.468 0.919-0.984 1.435-1.465 0.364-0.339 0.737-0.664 1.128-0.916 0.605-0.392 1.243-0.627 1.898-0.501-0.364 0.79-1.068 2.214-2.21 2.835-0.617 0.336-1.363 0.427-2.251 0.048z"></path>
<path fill="#fff" style="fill: var(--color2, #fff)" d="M19.605 21.174l-0.010 0.197c-0.076 1.177 0.546 2.51 1.849 3.322 0.928 0.578 2.205 0.891 3.824 0.687l0.307-0.042-0.11-0.288c-0.339-0.923-1.319-1.859-2.443-2.57-0.404-0.255-0.825-0.48-1.237-0.666-0.771-0.347-1.508-0.56-2.027-0.617l-0.152-0.023zM19.866 21.595c0.55 0.137 1.286 0.469 2.043 0.887 0.46 0.253 0.931 0.535 1.364 0.848 0.677 0.488 1.269 1.036 1.592 1.607-1.337 0.147-2.414-0.103-3.222-0.574-1.132-0.66-1.735-1.75-1.777-2.768z"></path>
<path fill="#fff" style="fill: var(--color2, #fff)" d="M31.090 36.352l0.227-0.016c1.164-0.059 1.909-0.432 2.409-0.935 0.597-0.6 0.846-1.397 1.022-2.116 0.136-0.557 0.218-1.064 0.427-1.352l0.153-0.216-0.231-0.13c-0.986-0.569-1.874-0.161-2.585 0.796-0.296 0.398-0.566 0.891-0.784 1.445-0.143 0.364-0.262 0.755-0.363 1.156-0.097 0.387-0.173 0.785-0.235 1.181l-0.039 0.188zM31.541 36.040c0.085-0.31 0.183-0.618 0.285-0.921 0.127-0.375 0.27-0.737 0.417-1.080 0.216-0.503 0.447-0.963 0.712-1.332 0.474-0.659 1.036-1.035 1.697-0.799-0.139 0.333-0.221 0.787-0.325 1.281-0.139 0.66-0.332 1.399-0.857 1.965-0.406 0.437-1.009 0.767-1.929 0.887z"></path>
<path fill="#fff" style="fill: var(--color2, #fff)" d="M31.318 27.953l-0.011 0.225c-0.073 1.099 0.545 1.789 1.74 2.118 1.011 0.279 2.455 0.289 4.252 0.066l0.285-0.040-0.086-0.274c-0.36-1.188-1.113-1.733-1.99-1.973-0.336-0.092-0.692-0.14-1.051-0.154-0.344-0.013-0.692 0.004-1.028 0.031-0.767 0.061-1.468 0.183-1.93 0.058l-0.179-0.057zM31.581 28.416c0.48 0.11 1.152 0.083 1.873 0.068 0.321-0.007 0.651-0.011 0.978 0.005 0.319 0.015 0.635 0.045 0.934 0.121 0.653 0.165 1.224 0.535 1.565 1.315-1.584 0.227-2.869 0.247-3.794 0.023-0.947-0.23-1.497-0.723-1.556-1.531z"></path>
<path fill="#fff" style="fill: var(--color2, #fff)" d="M23.431 31.049l0.191-0.010c1.279-0.045 2.111-0.625 2.57-1.37 0.579-0.941 0.55-2.155 0.062-2.971l-0.089-0.143-0.165 0.030c-0.776 0.129-1.354 0.638-1.76 1.283-0.229 0.363-0.408 0.767-0.53 1.163-0.261 0.856-0.289 1.659-0.278 1.872v0.145zM25.924 27.114c0.353 0.669 0.359 1.605-0.066 2.359-0.359 0.637-1.023 1.143-2.042 1.275 0.047-0.304 0.183-0.904 0.415-1.54 0.128-0.351 0.279-0.716 0.48-1.044 0.292-0.477 0.677-0.886 1.213-1.049z"></path>
<path fill="#fff" style="fill: var(--color2, #fff)" d="M10.329 4.538c-0.38-0.145-0.785-0.004-1.137 0.333-0.354 0.339-0.654 0.883-0.813 1.508-0.227 0.895-0.154 1.949 0.434 2.804l0.155 0.215 0.22-0.148c0.666-0.435 1.232-1.063 1.597-1.729 0.174-0.317 0.303-0.642 0.378-0.954 0.081-0.336 0.107-0.658 0.065-0.94-0.081-0.543-0.364-0.954-0.898-1.088zM9.1 8.63c-0.398-0.668-0.453-1.464-0.314-2.159 0.134-0.667 0.441-1.246 0.82-1.53 0.2-0.15 0.417-0.217 0.634-0.148 0.298 0.136 0.434 0.387 0.478 0.692 0.039 0.274-0.013 0.588-0.119 0.925-0.084 0.265-0.205 0.54-0.355 0.814-0.281 0.512-0.669 1.018-1.145 1.406z"></path>
<path fill="#fff" style="fill: var(--color2, #fff)" d="M15.96 3.727l-0.118 0.1c-0.933 0.761-1.401 1.84-1.528 3.007-0.12 1.11 0.073 2.3 0.468 3.373l0.082 0.214 0.216-0.076c1.111-0.375 2.012-1.654 2.267-3.054 0.096-0.524 0.104-1.066-0.005-1.573-0.166-0.774-0.59-1.469-1.308-1.936l-0.075-0.053zM15.898 4.14c0.532 0.442 0.804 1.040 0.911 1.678 0.075 0.447 0.067 0.915-0.013 1.373-0.198 1.123-0.815 2.189-1.661 2.617-0.346-0.94-0.524-1.968-0.448-2.939 0.081-1.035 0.448-2.005 1.211-2.728z"></path>
<path fill="#fff" style="fill: var(--color2, #fff)" d="M17.917 9.806l-0.165 0.036c-0.629 0.122-1.435 0.285-1.984 0.997-0.349 0.452-0.594 1.127-0.617 2.165v0.236h0.236c0.975 0.018 1.87-0.245 2.386-0.827 0.236-0.265 0.403-0.597 0.452-0.994 0.053-0.425-0.029-0.926-0.271-1.505l-0.038-0.107zM17.639 10.149c0.115 0.463 0.116 0.854 0.051 1.185-0.056 0.282-0.169 0.517-0.337 0.709-0.383 0.439-1.016 0.664-1.73 0.715 0.014-0.783 0.185-1.32 0.448-1.696 0.414-0.593 1.041-0.782 1.569-0.913z"></path>
<path fill="#fff" style="fill: var(--color2, #fff)" d="M23.929 8.768l-0.088 0.126c-0.572 0.787-0.778 1.762-0.727 2.772 0.073 1.424 0.662 2.916 1.448 4.037l0.134 0.186 0.19-0.129c0.978-0.645 1.495-2.215 1.349-3.735-0.052-0.552-0.189-1.098-0.423-1.579-0.372-0.766-0.974-1.373-1.797-1.647l-0.086-0.032zM23.976 9.183c0.638 0.298 1.066 0.848 1.345 1.49 0.189 0.437 0.308 0.917 0.358 1.407 0.123 1.222-0.169 2.501-0.877 3.145-0.702-1.016-1.232-2.321-1.334-3.583-0.070-0.881 0.068-1.74 0.508-2.46z"></path>
<path fill="#fff" style="fill: var(--color2, #fff)" d="M20.742 16.088l0.011 0.164c0.052 1.102 0.467 1.822 1.057 2.308 0.966 0.796 2.433 0.949 3.628 1.090l0.377 0.038-0.125-0.357c-0.404-1.211-0.97-2.138-1.696-2.72-0.36-0.288-0.759-0.497-1.192-0.61-0.592-0.154-1.246-0.133-1.955 0.064l-0.104 0.023zM21.040 16.403c0.594-0.092 1.128-0.043 1.613 0.113 0.358 0.115 0.687 0.293 0.989 0.535 0.588 0.47 1.078 1.171 1.456 2.087-1.047-0.088-2.236-0.221-3.065-0.859-0.514-0.394-0.883-0.983-0.993-1.876z"></path>
<path fill="#fff" style="fill: var(--color2, #fff)" d="M28.008 14.077l-0.165 0.036c-0.602 0.12-1.522 0.592-2.183 1.508-0.456 0.631-0.786 1.473-0.806 2.552v0.238h0.237c0.974 0.015 1.995-0.498 2.617-1.337 0.241-0.325 0.426-0.699 0.515-1.107 0.121-0.55 0.076-1.158-0.178-1.781l-0.037-0.108zM27.731 14.426c0.123 0.506 0.088 0.978-0.034 1.408-0.094 0.332-0.245 0.636-0.442 0.906-0.468 0.64-1.187 1.088-1.925 1.178 0.027-0.859 0.283-1.549 0.638-2.084 0.514-0.773 1.228-1.229 1.763-1.408z"></path>
<path fill="#fff" style="fill: var(--color2, #fff)" d="M33.309 11.581l-0.026 0.221c-0.234 1.78-1.050 3.681-0.834 5.267 0.105 0.773 0.446 1.474 1.184 2.061l0.081 0.063 0.1-0.016c1.594-0.248 2.25-1.998 2.066-3.801-0.063-0.611-0.218-1.228-0.467-1.776-0.422-0.932-1.098-1.672-1.93-1.953l-0.173-0.065zM33.524 12.070c0.621 0.329 1.077 0.985 1.388 1.745 0.208 0.507 0.351 1.064 0.412 1.619 0.162 1.48-0.227 2.97-1.488 3.261-0.807-0.653-1.041-1.487-1.027-2.406 0.020-1.319 0.531-2.804 0.716-4.219z"></path>
</symbol>
<symbol id="icon-linkedin" viewBox="0 0 32 32">
<path fill="none" stroke="#fff" style="stroke: var(--color2, #fff)" stroke-linejoin="round" stroke-linecap="round" stroke-miterlimit="4" stroke-width="2.6667" d="M21.333 10.667c2.122 0 4.157 0.843 5.657 2.343s2.343 3.535 2.343 5.657v9.333h-5.333v-9.333c0-0.707-0.281-1.385-0.781-1.886s-1.178-0.781-1.886-0.781c-0.707 0-1.385 0.281-1.886 0.781s-0.781 1.178-0.781 1.886v9.333h-5.333v-9.333c0-2.122 0.843-4.157 2.343-5.657s3.535-2.343 5.657-2.343v0z"></path>
<path fill="none" stroke="#fff" style="stroke: var(--color2, #fff)" stroke-linejoin="round" stroke-linecap="round" stroke-miterlimit="4" stroke-width="2.6667" d="M8 12h-5.333v16h5.333v-16z"></path>
<path fill="none" stroke="#fff" style="stroke: var(--color2, #fff)" stroke-linejoin="round" stroke-linecap="round" stroke-miterlimit="4" stroke-width="2.6667" d="M5.333 8c1.473 0 2.667-1.194 2.667-2.667s-1.194-2.667-2.667-2.667c-1.473 0-2.667 1.194-2.667 2.667s1.194 2.667 2.667 2.667z"></path>
</symbol>
<symbol id="icon-mail" viewBox="0 0 32 32">
<path fill="none" stroke="#fff" style="stroke: var(--color2, #fff)" stroke-linejoin="round" stroke-linecap="round" stroke-miterlimit="4" stroke-width="2.6667" d="M5.333 5.333h21.333c1.467 0 2.667 1.2 2.667 2.667v16c0 1.467-1.2 2.667-2.667 2.667h-21.333c-1.467 0-2.667-1.2-2.667-2.667v-16c0-1.467 1.2-2.667 2.667-2.667z"></path>
<path fill="none" stroke="#fff" style="stroke: var(--color2, #fff)" stroke-linejoin="round" stroke-linecap="round" stroke-miterlimit="4" stroke-width="2.6667" d="M29.333 8l-13.333 9.333-13.333-9.333"></path>
</symbol>
<symbol id="icon-menu" viewBox="0 0 32 32">
<path fill="none" stroke="#475F45" stroke-linejoin="round" stroke-linecap="round" stroke-miterlimit="4" stroke-width="2.6667" d="M4 16h24"></path>
<path fill="none" stroke="#475F45" stroke-linejoin="round" stroke-linecap="round" stroke-miterlimit="4" stroke-width="2.6667" d="M4 8h24"></path>
<path fill="none" stroke="#475F45" stroke-linejoin="round" stroke-linecap="round" stroke-miterlimit="4" stroke-width="2.6667" d="M4 24h24"></path>
</symbol>
<symbol id="icon-Subtract" viewBox="0 0 32 32">
<path d="M15.749 32c8.698 0 15.749-7.163 15.749-16s-7.051-16-15.749-16c-8.698 0-15.749 7.163-15.749 16 0 4.574 1.889 8.7 4.918 11.616 0.39-0.248 0.777-0.5 1.161-0.754 0.038-0.219 0.085-0.485 0.136-0.787 0.027-0.154 0.056-0.318 0.090-0.488 0.026-0.137 0.057-0.278 0.088-0.425l0.013-0.061c0.13-0.602 0.266-1.279 0.377-1.989h-0.047c-1.243 0.023-2.383-0.318-3.042-1.071-0.301-0.343-0.514-0.773-0.577-1.287-0.067-0.55 0.037-1.199 0.346-1.949l0.048-0.139 0.21 0.047c0.802 0.158 1.83 0.369 2.529 1.291 0.322 0.424 0.575 1 0.701 1.796 0.012-0.122 0.022-0.245 0.031-0.367 0.054-0.722 0.067-1.443 0.009-2.121-1.353-0.542-2.438-2.15-2.754-3.904-0.122-0.679-0.133-1.381 0.006-2.037 0.212-1.002 0.751-1.902 1.667-2.507l0.096-0.069 0.151 0.129c1.189 0.986 1.786 2.383 1.948 3.894 0.153 1.438-0.093 2.979-0.596 4.367l-0.079 0.207c0.099 0.66 0.136 1.362 0.13 2.067-0.012 1.343-0.174 2.698-0.377 3.804-0.031 0.173-0.065 0.339-0.102 0.498-0.041 0.174-0.085 0.338-0.13 0.492l-0.009 0.032c2.678-1.822 5.197-3.787 7.464-5.904-0.006-0.086-0.016-0.253-0.018-0.481-0.001-0.109-0.001-0.228 0.009-0.36 0.010-0.116 0.027-0.238 0.045-0.367 0.012-0.083 0.024-0.168 0.034-0.256 0.039-0.32 0.080-0.664 0.101-1.013-0.822-0.561-1.519-1.356-1.974-2.198-0.222-0.41-0.386-0.831-0.482-1.235-0.103-0.436-0.137-0.852-0.083-1.217 0.103-0.703 0.464-1.235 1.145-1.409 0.485-0.188 1-0.005 1.45 0.432 0.452 0.439 0.833 1.143 1.036 1.952 0.284 1.142 0.199 2.482-0.519 3.58 0.019 0.171 0.034 0.342 0.045 0.511 0.019 0.282 0.028 0.556 0.022 0.812-0.005 0.18-0.010 0.349-0.030 0.503 1.47-1.434 2.822-2.936 4.030-4.508 0.325-0.422 0.592-0.817 0.829-1.223l-0.106-0.204c-0.572-1.075-0.912-2.48-0.895-3.8 0.008-0.594 0.088-1.171 0.246-1.688 0.163-0.533 0.401-1.008 0.724-1.377 0.507-0.579 1.197-0.921 2.090-0.859 0.569-0.012 0.961 0.33 1.189 0.892 0.323 0.796 0.291 2.071-0.050 3.319-0.421 1.537-1.322 3.006-2.535 3.555-0.29 0.586-0.62 1.128-1.054 1.723-0.229 0.314-0.463 0.625-0.703 0.934 0.134-0.063 0.274-0.125 0.417-0.185 0.229-0.096 0.468-0.185 0.714-0.265 0.458-0.907 1.263-1.711 2.16-2.235 0.413-0.241 0.844-0.421 1.263-0.528 0.442-0.113 0.869-0.151 1.248-0.094 0.703 0.106 1.25 0.481 1.438 1.207 0.197 0.518 0.194 0.947 0.062 1.298-0.211 0.566-0.778 0.939-1.515 1.147-1.426 0.404-3.492 0.177-4.515-0.247l-0.001-0c-0.043 0.022-0.086 0.043-0.129 0.065-0.447 0.23-0.846 0.501-1.202 0.743v0 0l-0 0c-0.113 0.077-0.223 0.151-0.327 0.22-0.187 0.123-0.36 0.223-0.51 0.31l-0 0-0.007 0.004c-0.258 0.148-0.438 0.241-0.504 0.274-1.669 1.93-3.543 3.756-5.569 5.482 0.063-0.009 0.129-0.018 0.197-0.025 0.11-0.012 0.226-0.024 0.347-0.035 0.413-0.040 0.88-0.086 1.357-0.198 0.141-0.034 0.283-0.071 0.425-0.112l0.055-0.121c0.65-1.487 1.809-2.325 3.114-2.703 0.532-0.153 1.087-0.231 1.639-0.241 0.853-0.013 1.691 0.132 2.416 0.334l0.199 0.047-0.089 0.246c-0.605 1.77-1.705 2.656-2.892 3.037-1.431 0.46-3.002 0.172-4.035-0.222-0.377 0.194-0.767 0.348-1.147 0.471-0.311 0.101-0.612 0.181-0.895 0.236-0.217 0.043-0.422 0.078-0.61 0.089-0.195 0.010-0.368 0-0.515-0.013-0.201-0.019-0.349-0.044-0.434-0.061-1.711 1.405-3.521 2.741-5.399 4.009 2.725 2.293 6.224 3.671 10.039 3.671zM7.191 18.279c0.353-1.109 0.526-2.293 0.439-3.419-0.103-1.34-0.571-2.596-1.544-3.533-0.678 0.573-1.025 1.347-1.161 2.172-0.096 0.579-0.086 1.185 0.017 1.778 0.239 1.379 0.96 2.693 1.955 3.297-0.075-0.422-0.186-0.819-0.341-1.179-0.032-0.067-0.004-0.148 0.062-0.181s0.147-0.004 0.179 0.063c0.159 0.306 0.29 0.642 0.395 1zM14.726 16.1c0.091 0.195 0.166 0.409 0.228 0.635 0.321-0.77 0.348-1.627 0.197-2.389-0.171-0.864-0.563-1.614-1.045-1.982-0.255-0.194-0.532-0.281-0.808-0.192-0.38 0.177-0.554 0.502-0.61 0.896-0.050 0.354 0.017 0.761 0.152 1.198 0.107 0.343 0.261 0.7 0.453 1.054 0.325 0.601 0.762 1.195 1.291 1.676-0.015-0.283-0.050-0.552-0.117-0.798-0.026-0.072 0.010-0.153 0.081-0.181 0.072-0.026 0.151 0.010 0.178 0.082zM15.82 22.853c-0.136 0.12-0.279 0.231-0.427 0.335 0.903 0.299 2.096 0.474 3.214 0.156 1.030-0.293 1.991-1.009 2.603-2.427-0.773-0.122-1.652-0.137-2.518-0.023-0.589 0.077-1.174 0.211-1.716 0.456-0.703 0.318-1.334 0.807-1.796 1.541 0.163-0.078 0.322-0.165 0.475-0.264 0.061-0.046 0.148-0.032 0.193 0.030s0.033 0.149-0.028 0.196zM21.192 16.089c0.99 0.277 2.384 0.403 3.428 0.164 0.949-0.219 1.599-0.756 1.25-1.839-0.186-0.411-0.522-0.603-0.924-0.665-0.368-0.057-0.789 0.015-1.233 0.161-0.355 0.116-0.718 0.284-1.075 0.493-0.571 0.334-1.12 0.773-1.537 1.289 0.284-0.048 0.571-0.077 0.858-0.080 0.076-0.006 0.143 0.051 0.149 0.128s-0.050 0.145-0.126 0.151c-0.267 0.043-0.531 0.111-0.789 0.197zM21.651 11.426c-0.156 0.439-0.301 0.833-0.446 1.196 0.695-0.61 1.215-1.594 1.53-2.593 0.354-1.123 0.449-2.279 0.186-3.015-0.147-0.409-0.406-0.681-0.813-0.69-0.602 0.044-1.053 0.295-1.4 0.667-0.341 0.365-0.559 0.861-0.698 1.423-0.115 0.463-0.17 0.969-0.177 1.493-0.012 1.091 0.192 2.252 0.605 3.195 0.014-0.006 0.028-0.011 0.043-0.017 0.254-0.529 0.491-1.112 0.762-1.815 0.042-0.116 0.169-0.174 0.282-0.131 0.114 0.044 0.171 0.173 0.128 0.287zM3.867 19.108c-0.146 0.6-0.148 1.105-0.065 1.534 0.071 0.365 0.216 0.669 0.43 0.918 0.488 0.569 1.295 0.86 2.205 0.926-0.018-1.014-0.236-1.71-0.571-2.196-0.528-0.767-1.327-1.012-1.999-1.182z"></path>
</symbol>
<symbol id="icon-twitter" viewBox="0 0 32 32">
<path fill="none" stroke="#fff" style="stroke: var(--color2, #fff)" stroke-linejoin="round" stroke-linecap="round" stroke-miterlimit="4" stroke-width="2.6667" d="M30.667 4c-1.277 0.901-2.691 1.589-4.187 2.040-0.803-0.923-1.87-1.578-3.057-1.875s-2.437-0.222-3.58 0.214c-1.143 0.436-2.125 1.213-2.812 2.226s-1.047 2.212-1.031 3.435v1.333c-2.343 0.061-4.665-0.459-6.759-1.513s-3.894-2.609-5.241-4.527c0 0-5.333 12 6.667 17.333-2.746 1.864-6.017 2.799-9.333 2.667 12 6.667 26.667 0 26.667-15.333-0.001-0.371-0.037-0.742-0.107-1.107 1.361-1.342 2.321-3.036 2.773-4.893v0z"></path>
</symbol>
</defs>
</svg>
